<?xml version="1.0" encoding="UTF-8" standalone="no"?>
<svg style="height: 512px; width: 512px;" viewBox="0 0 512 512" version="1.1" id="svg6" sodipodi:docname="bone.svg"
   xmlns:sodipodi="http://sodipodi.sourceforge.net/DTD/sodipodi-0.dtd" xmlns="http://www.w3.org/2000/svg"
   xmlns:svg="http://www.w3.org/2000/svg">
   <defs id="defs10" />
   <sodipodi:namedview id="namedview8" pagecolor="#505050" bordercolor="#ffffff" borderopacity="1" showgrid="false" />
   <g transform="translate(0,0)" id="g4">
      <path
         d="m 74.632502,128.68562 c 14.7856,15.24664 45.528478,23.57424 79.268078,29.29544 49.85669,28.59681 149.19954,129.69045 179.80948,179.91978 18.44205,30.11639 13.68322,59.01725 25.60999,70.89311 9.97162,9.78353 26.24569,16.98683 38.56702,10.43124 9.99708,-8.12041 10.93895,-14.24537 12.45569,-25.24159 11.91758,-2.70539 27.59767,-8.67266 33.38746,-18.45761 3.81413,-6.75004 3.86929,-14.35851 -0.0353,-22.73348 -7.80717,-16.75207 -49.22312,-41.32898 -70.03256,-36.40681 L 174.17616,126.2758 c 0.63569,-38.192955 -28.66964,-64.385599 -46.91724,-68.375095 -9.12238,-1.994748 -16.87934,-0.803981 -21.15451,3.128947 -9.232698,8.497302 -6.967828,15.617165 -6.197088,26.954913 -10.17031,-0.5466 -29.90566,-2.06263 -32.8048,7.75201 -4.03758,13.668365 -0.76509,24.396595 7.52998,32.949045 z"
         id="path2" style="fill:#ffffff" />
   </g>
</svg>
