<?xml version="1.0" encoding="UTF-8" standalone="no"?>
<!-- Created with Inkscape (http://www.inkscape.org/) -->

<svg
   width="40mm"
   height="40mm"
   viewBox="0 0 40 40"
   version="1.1"
   id="svg5"
   inkscape:version="1.2.1 (9c6d41e410, 2022-07-14)"
   sodipodi:docname="slime_core.svg"
   xmlns:inkscape="http://www.inkscape.org/namespaces/inkscape"
   xmlns:sodipodi="http://sodipodi.sourceforge.net/DTD/sodipodi-0.dtd"
   xmlns="http://www.w3.org/2000/svg"
   xmlns:svg="http://www.w3.org/2000/svg">
  <sodipodi:namedview
     id="namedview7"
     pagecolor="#505050"
     bordercolor="#ffffff"
     borderopacity="1"
     inkscape:showpageshadow="0"
     inkscape:pageopacity="0"
     inkscape:pagecheckerboard="1"
     inkscape:deskcolor="#505050"
     inkscape:document-units="mm"
     showgrid="false"
     inkscape:zoom="0.914906"
     inkscape:cx="396.76207"
     inkscape:cy="561.25984"
     inkscape:window-width="2560"
     inkscape:window-height="1361"
     inkscape:window-x="-9"
     inkscape:window-y="-9"
     inkscape:window-maximized="1"
     inkscape:current-layer="layer1" />
  <defs
     id="defs2" />
  <g
     inkscape:label="Layer 1"
     inkscape:groupmode="layer"
     id="layer1">
    <path
       id="path443"
       style="fill:#ffffff;stroke-width:0.25"
       d="M 20.000332,0 A 20,20 0 0 0 0,20.000332 20,20 0 0 0 20.000332,40.000142 20,20 0 0 0 40.000143,20.000332 20,20 0 0 0 20.000332,0 Z m 0,2.500106 A 17.5,17.5 0 0 1 37.500033,20.000332 17.5,17.5 0 0 1 20.000332,37.500032 17.5,17.5 0 0 1 2.500106,20.000332 17.5,17.5 0 0 1 20.000332,2.500106 Z" />
    <circle
       style="fill:#ffffff;stroke-width:0.25"
       id="path448"
       cx="20.000233"
       cy="20.000233"
       r="15" />
  </g>
</svg>
